<svg width="15" height="15" viewBox="0 0 34 31" fill="none" xmlns="http://www.w3.org/2000/svg">
<path d="M33.0636 8.59951L30.0022 11.3908C29.69 11.6754 29.1853 11.6754 28.8732 11.3908L21.5018 4.66986C21.1896 4.38528 21.1896 3.92511 21.5018 3.64053L24.5632 0.849204C25.8051 -0.283068 27.8239 -0.283068 29.0724 0.849204L33.0636 4.48822C34.3121 5.62049 34.3121 7.46119 33.0636 8.59951ZM18.872 6.03828L1.43287 21.9385L0.0249901 29.2953C-0.167597 30.2883 0.782057 31.1481 1.87117 30.9785L9.9399 29.6888L27.379 13.7886C27.6911 13.504 27.6911 13.0438 27.379 12.7592L20.0076 6.03828C19.6888 5.7537 19.1841 5.7537 18.872 6.03828V6.03828ZM8.23982 20.5762C7.87457 20.2431 7.87457 19.7103 8.23982 19.3773L18.4669 10.0527C18.8321 9.71967 19.4165 9.71967 19.7818 10.0527C20.147 10.3857 20.147 10.9185 19.7818 11.2516L9.55473 20.5762C9.18948 20.9092 8.60507 20.9092 8.23982 20.5762V20.5762ZM5.84245 25.6684H9.03009V27.8663L4.74669 28.5505L2.68136 26.6674L3.43179 22.762H5.84245V25.6684Z" fill="#FF5A79"/>
</svg>
